# xmcd
#
# Track frame offsets:
# 150
# 17872
# 36040
# 53140
# 81230
# 112410
# 129477
# 144525
# 158182
# 169265
#
# Disc length: 2692 seconds
#
#
# Revision: 0
# Processed by: cddbd v1.5.2PL0 Copyright (c) Steve Scherf et al.
# Submitted via: Nero 7, 11, 10, 0 
#
DISCID=8a0a820a
DTITLE=Will Thomas - I Will Not Look Like Them
DYEAR=1997
DGENRE=Blues
TTITLE0=I Will Not Look Like Them
TTITLE1=Wait Again
TTITLE2=Tomorrow Will Be Like Yesterday
TTITLE3=Trouble In Mind
TTITLE4=Sunday Blues
TTITLE5=Girl I Know
TTITLE6=Just Stay Pretty
TTITLE7=Insomnia
TTITLE8=I Ain't About To Fight
TTITLE9=Everybody Needs Love
EXTD=
EXTT0=I Will Not Look Like Them
EXTT1=Wait Again
EXTT2=Tomorrow Will Be Like Yesterday
EXTT3=Trouble In Mind
EXTT4=Sunday Blues
EXTT5=Girl I Know
EXTT6=Just Stay Pretty
EXTT7=Insomnia
EXTT8=I Ain't About To Fight
EXTT9=Everybody Needs Love
PLAYORDER=
